# xmcd
#
# Track frame offsets:
#	150
#	19124
#	31171
#	46294
#	63950
#	75694
#	89935
#	107875
#	124262
#	136064
#	155332
#	174315
#	189654
#	203304
#
# Disc length: 2893 seconds
#
# Revision: 0
# Processed by: cddbd v1.5.2PL0 Copyright (c) Steve Scherf et al.
# Submitted via: audiograbber 1.83.01
#
DISCID=b20b4b0e
DTITLE=Greg Baldock - Family Bush and Traditional
DYEAR=2018
DGENRE=Country
TTITLE0=Saffron
TTITLE1=In The Doghouse
TTITLE2=My Love, My Wife
TTITLE3=Ellen Rose
TTITLE4=18 Yellow Roses
TTITLE5=Roly
TTITLE6=September Rain
TTITLE7=Don't Ever Stop Holding My Hand
TTITLE8=Do What You Do Well
TTITLE9=The Man With The Donkey
TTITLE10=My Home In The Valley
TTITLE11=The Outback Club
TTITLE12=Bounty Hunter
TTITLE13=He Drinks Tequila
EXTD=
EXTT0=
EXTT1=
EXTT2=
EXTT3=
EXTT4=
EXTT5=
EXTT6=
EXTT7=
EXTT8=
EXTT9=
EXTT10=
EXTT11=
EXTT12=
EXTT13=
PLAYORDER=
